{"title":"Lock, Stock and Two Smoking Barrels 1998 DVDRip x264 xLeAr","uid":15405363,"size":824072120,"categoryP":"video","categoryS":"movies_dvdr","magnet":"?xt=urn:btih:0360f66967966d8948c1581440e88d0ed210853f&amp;dn=Lock%2C+Stock+and+Two+Smoking+Barrels+1998+DVDRip+x264+xLeAr&amp;tr=udp%3A%2F%2Ftracker.leechers-paradise.org%3A6969&amp;tr=udp%3A%2F%2Fzer0day.ch%3A1337&amp;tr=udp%3A%2F%2Fopen.demonii.com%3A1337&amp;tr=udp%3A%2F%2Ftracker.coppersurfer.tk%3A6969&amp;tr=udp%3A%2F%2Fexodus.desync.com%3A6969","seeders":26,"leechers":4,"uploader":"xLeAr","files":2,"time":1469497622,"description":"A botched card game in London triggers four friends, thugs, weed-growers, hard gangsters, loan sharks and debt collectors to collide with each other in a series of unexpected events, all for the sake of weed, cash and two antique shotguns.\r\n\r\n\r\n[b]General [/b]\r\nFormat : MPEG-4 \r\nFormat profile : Base Media / Version 2 \r\nCodec ID : mp42 (isom/iso2/avc1/mp41) \r\nFile size : 786 MiB \r\nDuration : 1 h 42 min \r\nOverall bit rate mode : Variable \r\nOverall bit rate : 1 068 kb/s \r\nEncoded date : UTC 2016-07-17 01:57:27 \r\nTagged date : UTC 2016-07-17 01:57:27 \r\nWriting application : HandBrake 0.10.5 2016021100 \r\n\r\n\r\n[b]\r\nVideo[/b] \r\nID : 1 \r\nFormat : AVC \r\nFormat/Info : Advanced Video Codec \r\nFormat profile :    \r\nFormat settings, CABAC : Yes \r\nFormat settings, ReFrames : 4 frames \r\nCodec ID : avc1 \r\nCodec ID/Info : Advanced Video Coding \r\nDuration : 1 h 42 min \r\nBit rate : 950 kb/s \r\nWidth : 712 pixels \r\nHeight : 552 pixels \r\nDisplay aspect ratio : 1.85:1 \r\nFrame rate mode : Constant \r\nFrame rate : 25.000 FPS \r\nColor space : YUV \r\nChroma subsampling : 4:2:0 \r\nBit depth : 8 bits \r\nScan type : Progressive \r\nBits/(Pixel*Frame) : 0.097 \r\nStream size : 699 MiB (89%) \r\nWriting library : x264 core 142 r2479 dd79a61 \r\nEncoding settings : cabac=1 / ref=2 / deblock=1:-2:-2 / analyse=0x1:0x111 / me=hex / subme=4 / psy=1 / psy_rd=1.00:0.25 / mixed_ref=0 / me_range=16 / chroma_me=1 / trellis=1 / 8x8dct=0 / cqm=0 / deadzone=6,6 / fast_pskip=1 / chroma_qp_offset=-2 / threads=12 / lookahead_threads=3 / sliced_threads=0 / nr=0 / decimate=0 / interlaced=0 / bluray_compat=0 / constrained_intra=0 / bframes=3 / b_pyramid=2 / b_adapt=1 / b_bias=0 / direct=1 / weightb=1 / open_gop=0 / weightp=1 / keyint=250 / keyint_min=25 / scenecut=40 / intra_refresh=0 / rc_lookahead=20 / rc=2pass / mbtree=1 / bitrate=950 / ratetol=1.0 / qcomp=0.80 / qpmin=0 / qpmax=69 / qpstep=4 / cplxblur=20.0 / qblur=0.5 / vbv_maxrate=20000 / vbv_bufsize=25000 / nal_hrd=none / filler=0 / ip_ratio=1.10 / aq=1:0.50 \r\nEncoded date : UTC 2016-07-17 01:57:27 \r\nTagged date : UTC 2016-07-17 01:57:27 \r\nColor range : Limited \r\nColor primaries : BT.601 PAL \r\nTransfer characteristics : BT.709 \r\nMatrix coefficients : BT.601 \r\nMenus : 3 \r\n\r\n\r\n[b]\r\nAudio [/b]\r\nID : 2 \r\nFormat : AAC \r\nFormat/Info : Advanced Audio Codec \r\nFormat profile : LC \r\nCodec ID : 40 \r\nDuration : 1 h 42 min \r\nBit rate mode : Variable \r\nBit rate : 112 kb/s \r\nChannel(s) : 2 channels \r\nChannel positions : Front: L R \r\nSampling rate : 48.0 kHz \r\nFrame rate : 46.875 FPS (1024 spf) \r\nCompression mode : Lossy \r\nStream size : 82.6 MiB (11%) \r\nTitle : Stereo / Stereo \r\nLanguage : English \r\nDefault : Yes \r\nAlternate group : 1 \r\nEncoded date : UTC 2016-07-17 01:57:27 \r\nTagged date : UTC 2016-07-17 01:57:27 \r\nMenus : 3","torrent":{"xt":"urn:btih:0360f66967966d8948c1581440e88d0ed210853f","amp;dn":"Lock%2C+Stock+and+Two+Smoking+Barrels+1998+DVDRip+x264+xLeAr","amp;tr":["udp%3A%2F%2Ftracker.leechers-paradise.org%3A6969","udp%3A%2F%2Fzer0day.ch%3A1337","udp%3A%2F%2Fopen.demonii.com%3A1337","udp%3A%2F%2Ftracker.coppersurfer.tk%3A6969","udp%3A%2F%2Fexodus.desync.com%3A6969"],"infoHash":"0360f66967966d8948c1581440e88d0ed210853f","infoHashBuffer":{"type":"Buffer","data":[3,96,246,105,103,150,109,137,72,193,88,20,64,232,141,14,210,16,133,63]},"announce":[],"urlList":[]}}